<svg id="LOGO" xmlns="http://www.w3.org/2000/svg" viewBox="0 0 504 504"><defs><style>.cls-1{fill:#231815;}</style></defs><path class="cls-1" d="M639,585a54,54,0,1,1-54,54,54.06,54.06,0,0,1,54-54m0-18a72,72,0,1,0,72,72,72,72,0,0,0-72-72Z" transform="translate(-278.98 -278.98)"/><path class="cls-1" d="M765,279H279V783H639A143.94,143.94,0,0,0,783,639V279Zm0,290.24V639A126,126,0,0,1,639,765H297V297H765Z" transform="translate(-278.98 -278.98)"/><polygon class="cls-1" points="216 72 192.53 72 144 129.98 95.47 72 72 72 132.27 144 72 216 95.46 216 144 158.02 192.54 216 216 216 155.73 144 216 72"/><path class="cls-1" d="M486,693l-52.92-105.8L423,567l-10.07,20.2h0L360,693l-9,18h103.7l-9-18H380.11L423,607.3,465.85,693h-.05l9,18H495Z" transform="translate(-278.98 -278.98)"/><polygon class="cls-1" points="288 216 311.46 216 326.42 198.13 302.96 198.13 288 216"/><polygon class="cls-1" points="432 72 408.53 72 318.13 180 341.6 180 432 72"/></svg>