<svg xmlns="http://www.w3.org/2000/svg" viewBox="0 0 1954.7 600"><g id="LOGO"><path d="M1650,187.5A112.5,112.5,0,1,1,1537.53,300,112.62,112.62,0,0,1,1650,187.5m0-37.5a150,150,0,1,0,150,150,150,150,0,0,0-150-150Z"/><path d="M1917.2,0H0V600H1654.7a299.87,299.87,0,0,0,300-300V0Zm0,154.67V300a262.48,262.48,0,0,1-262.5,262.5H37.5V37.5H1917.2Z"/><polygon points="450 150 401.1 150 300 270.79 198.9 150 150 150 275.55 299.99 150 450 198.88 450 300 329.2 401.12 450 450 450 324.45 299.99 450 150"/><path d="M1331.26,412.5,1221,192.08,1200,150l-21,42.08v0L1068.8,412.5,1050,450h216l-18.75-37.5h-136.6L1200,234l89.32,178.5h-.11L1308,450h42Z"/><polygon points="600 450 648.88 450 680.05 412.77 631.16 412.77 600 450"/><polygon points="900 150 851.1 150 662.77 375 711.66 375 900 150"/></g></svg>